# xmcd
#
# Track frame offsets:
#	150
#	15207
#	32737
#	45552
#	60705
#	75940
#	91857
#	102567
#	113365
#	127575
#	142437
#	152875
#
# Disc length: 2259 seconds
#
# Revision: 0
# Processed by: cddbd v1.4PL0 Copyright (c) Steve Scherf et al.
# Submitted via: audiograbber 1.81.01
#
DISCID=8808d10c
DTITLE=Piergiorgio Farina - I Grandi Successi Originali cd1
DYEAR=1900
DGENRE=pop
TTITLE0=In the mood
TTITLE1=Begin the beguine
TTITLE2=Chattanoga choo cho
TTITLE3=Il padrino parte seconda 
TTITLE4=Stardust
TTITLE5=Moon River
TTITLE6=Love Leterst in the sand
TTITLE7=Oh! carol
TTITLE8=Shake, rattle and roll
TTITLE9=True love
TTITLE10=Venus
TTITLE11=GReen fields
EXTD=
EXTT0=
EXTT1=
EXTT2=
EXTT3=
EXTT4=
EXTT5=
EXTT6=
EXTT7=
EXTT8=
EXTT9=
EXTT10=
EXTT11=
PLAYORDER=
